<svg width="1107" height="256" viewBox="0 0 1107 256" fill="none" xmlns="http://www.w3.org/2000/svg">
<path d="M158.919 185.6H116.914L190.795 0H232.8L158.919 185.6Z" fill="#020212"/>
<path d="M65.2031 256H23.1992L97.0791 70.4001H139.084L65.2031 256Z" fill="#020212"/>
<path d="M1043.54 217.958C1030.76 217.958 1019.54 215.091 1009.87 209.357C1000.21 203.622 992.833 195.676 987.754 185.518C982.838 175.36 980.381 163.891 980.381 151.111C980.381 138.332 982.838 126.863 987.754 116.705C992.833 106.547 1000.21 98.6007 1009.87 92.8663C1019.54 87.1319 1030.76 84.2646 1043.54 84.2646C1056.48 84.2646 1067.71 87.1319 1077.21 92.8663C1086.88 98.6007 1094.25 106.547 1099.33 116.705C1104.41 126.863 1106.95 138.332 1106.95 151.111C1106.95 163.891 1104.41 175.36 1099.33 185.518C1094.25 195.676 1086.88 203.622 1077.21 209.357C1067.71 215.091 1056.48 217.958 1043.54 217.958ZM1043.54 195.84C1051.73 195.84 1058.53 193.956 1063.94 190.187C1069.51 186.419 1073.61 181.176 1076.23 174.459C1079.01 167.741 1080.41 159.959 1080.41 151.111C1080.41 142.264 1079.01 134.482 1076.23 127.764C1073.61 121.047 1069.51 115.804 1063.94 112.036C1058.53 108.267 1051.73 106.383 1043.54 106.383C1035.51 106.383 1028.71 108.267 1023.14 112.036C1017.74 115.804 1013.64 121.047 1010.86 127.764C1008.23 134.482 1006.92 142.264 1006.92 151.111C1006.92 159.959 1008.23 167.741 1010.86 174.459C1013.64 181.176 1017.74 186.419 1023.14 190.187C1028.71 193.956 1035.51 195.84 1043.54 195.84Z" fill="#020212"/>
<path d="M900.588 87.2141H925.41V108.841C929.833 100.485 935.404 94.5869 942.121 91.1462C948.839 87.5417 956.457 85.7395 964.977 85.7395H974.807V110.07H964.24C956.539 110.07 949.904 111.299 944.333 113.756C938.763 116.214 934.339 120.392 931.062 126.29C927.949 132.188 926.393 140.052 926.393 149.883V215.009H900.588V87.2141Z" fill="#020212"/>
<path d="M826.285 217.958C813.997 217.958 803.183 215.091 793.844 209.357C784.506 203.622 777.297 195.676 772.218 185.518C767.302 175.36 764.845 163.891 764.845 151.111C764.845 138.332 767.302 126.863 772.218 116.705C777.297 106.547 784.506 98.6007 793.844 92.8663C803.183 87.1319 813.997 84.2646 826.285 84.2646C838.573 84.2646 849.386 87.1319 858.725 92.8663C868.064 98.6007 875.191 106.629 880.106 116.951C885.185 127.273 887.725 139.069 887.725 152.34V159.713H791.141C791.96 167.086 793.844 173.557 796.794 179.128C799.743 184.535 803.675 188.795 808.59 191.908C813.669 194.857 819.567 196.331 826.285 196.331C834.149 196.331 840.867 194.611 846.437 191.17C852.171 187.566 856.431 182.487 859.217 175.933H885.021C880.925 188.876 873.716 199.116 863.394 206.653C853.073 214.19 840.703 217.958 826.285 217.958ZM860.937 139.315C859.298 128.993 855.448 120.883 849.386 114.985C843.488 108.923 835.787 105.892 826.285 105.892C816.618 105.892 808.836 108.923 802.938 114.985C797.039 120.883 793.271 128.993 791.633 139.315H860.937Z" fill="#020212"/>
<path d="M704.007 38.0613H729.812V181.339C729.812 185.763 730.795 188.958 732.761 190.924C734.727 192.89 738.004 193.873 742.591 193.873H759.549V215.009H736.693C729.156 215.009 723.012 214.025 718.261 212.059C713.51 210.093 709.905 206.898 707.447 202.475C705.154 197.887 704.007 191.825 704.007 184.289V38.0613Z" fill="#020212"/>
<path d="M629.703 217.958C617.415 217.958 606.601 215.091 597.262 209.357C587.923 203.622 580.715 195.676 575.636 185.518C570.72 175.36 568.263 163.891 568.263 151.111C568.263 138.332 570.72 126.863 575.636 116.705C580.715 106.547 587.923 98.6007 597.262 92.8663C606.601 87.1319 617.415 84.2646 629.703 84.2646C641.991 84.2646 652.804 87.1319 662.143 92.8663C671.482 98.6007 678.609 106.629 683.524 116.951C688.603 127.273 691.143 139.069 691.143 152.34V159.713H594.559C595.378 167.086 597.262 173.557 600.211 179.128C603.161 184.535 607.093 188.795 612.008 191.908C617.087 194.857 622.985 196.331 629.703 196.331C637.567 196.331 644.284 194.611 649.855 191.17C655.589 187.566 659.849 182.487 662.635 175.933H688.439C684.343 188.876 677.134 199.116 666.812 206.653C656.491 214.19 644.121 217.958 629.703 217.958ZM664.355 139.315C662.716 128.993 658.866 120.883 652.804 114.985C646.906 108.923 639.205 105.892 629.703 105.892C620.036 105.892 612.254 108.923 606.356 114.985C600.457 120.883 596.689 128.993 595.051 139.315H664.355Z" fill="#020212"/>
<path d="M440.175 87.2129H467.946L504.072 187.974L540.199 87.2129H567.97L518.081 215.008H490.064L440.175 87.2129Z" fill="#020212"/>
<path d="M360.299 38.042H391.265L462.044 214.989H432.798L415.349 169.524H336.215L318.52 214.989H290.012L360.299 38.042ZM406.502 145.685L375.782 65.3214L345.062 145.685H406.502Z" fill="#020212"/>
</svg>
